# xmcd CD database file
#
# Track frame offsets:
#	150
#	30669
#	57036
#	89285
#	107725
#	130013
#	146434
#	170397
#	184071
#	204134
#	230329
#	251636
#	280360
#	299431
#
# Disc length: 4359 seconds
#
# Revision: 0
# Processed by: cddbd v1.5PL3 Copyright (c) Steve Scherf et al.
# Submitted via: CDex 1.51
#
DISCID=c111050e
DTITLE=Sojiro - Best Featuring Voice
DYEAR=2003
DGENRE=New Age
TTITLE0=Featuring Shiratori Emiko
TTITLE1=Featuring EPO
TTITLE2=Chinese Title
TTITLE3=Chinese Title
TTITLE4=Chinese Title
TTITLE5=Chinese Title
TTITLE6=Chinese Title
TTITLE7=Mix 2002
TTITLE8=Chinese Title
TTITLE9=Chinese Title
TTITLE10=Chinese Title
TTITLE11=Featuring Ohtaka Shizuru
TTITLE12=2002 Version
TTITLE13=Chinese Title
EXTD=YEAR: 2003
EXTT0=
EXTT1=
EXTT2=
EXTT3=
EXTT4=
EXTT5=
EXTT6=
EXTT7=
EXTT8=
EXTT9=
EXTT10=
EXTT11=
EXTT12=
EXTT13=
PLAYORDER=
